<mxfile host="app.diagrams.net" agent="Mozilla/5.0 (Windows NT 10.0; Win64; x64) AppleWebKit/537.36 (KHTML, like Gecko) Chrome/132.0.0.0 Safari/537.36" version="26.0.12">
  <diagram name="Page-1" id="87hcf9uPcxuN3vnRondj">
    <mxGraphModel dx="1434" dy="738" grid="1" gridSize="10" guides="1" tooltips="1" connect="1" arrows="1" fold="1" page="1" pageScale="1" pageWidth="850" pageHeight="1100" math="0" shadow="0">
      <root>
        <mxCell id="0" />
        <mxCell id="1" parent="0" />
        <mxCell id="8jLizTCmpMOPEbCXD5Jq-8" style="edgeStyle=orthogonalEdgeStyle;rounded=0;orthogonalLoop=1;jettySize=auto;html=1;entryX=0.5;entryY=0;entryDx=0;entryDy=0;" edge="1" parent="1" source="8jLizTCmpMOPEbCXD5Jq-1" target="8jLizTCmpMOPEbCXD5Jq-2">
          <mxGeometry relative="1" as="geometry" />
        </mxCell>
        <mxCell id="8jLizTCmpMOPEbCXD5Jq-1" value="START" style="strokeWidth=2;html=1;shape=mxgraph.flowchart.terminator;whiteSpace=wrap;" vertex="1" parent="1">
          <mxGeometry x="375" y="40" width="100" height="60" as="geometry" />
        </mxCell>
        <mxCell id="8jLizTCmpMOPEbCXD5Jq-9" style="edgeStyle=orthogonalEdgeStyle;rounded=0;orthogonalLoop=1;jettySize=auto;html=1;entryX=0.5;entryY=0;entryDx=0;entryDy=0;" edge="1" parent="1" source="8jLizTCmpMOPEbCXD5Jq-2" target="8jLizTCmpMOPEbCXD5Jq-7">
          <mxGeometry relative="1" as="geometry" />
        </mxCell>
        <mxCell id="8jLizTCmpMOPEbCXD5Jq-2" value="Initialize LCD:&lt;br&gt;&lt;p data-pm-slice=&quot;1 1 [&amp;quot;list&amp;quot;,{&amp;quot;spread&amp;quot;:false,&amp;quot;start&amp;quot;:176,&amp;quot;end&amp;quot;:462},&amp;quot;regular_list_item&amp;quot;,{&amp;quot;start&amp;quot;:176,&amp;quot;end&amp;quot;:209}]&quot;&gt;LCD startup,&amp;nbsp;&lt;span style=&quot;background-color: transparent; color: light-dark(rgb(0, 0, 0), rgb(255, 255, 255));&quot;&gt;8-bit, dual-line,&amp;nbsp;&lt;/span&gt;&lt;span style=&quot;background-color: transparent; color: light-dark(rgb(0, 0, 0), rgb(255, 255, 255));&quot;&gt;Display off,&amp;nbsp;&lt;/span&gt;&lt;span style=&quot;background-color: transparent; color: light-dark(rgb(0, 0, 0), rgb(255, 255, 255));&quot;&gt;Clear display,&amp;nbsp;&lt;/span&gt;&lt;span style=&quot;background-color: transparent; color: light-dark(rgb(0, 0, 0), rgb(255, 255, 255));&quot;&gt;Increment, shift off,&amp;nbsp;&lt;/span&gt;&lt;span style=&quot;background-color: transparent; color: light-dark(rgb(0, 0, 0), rgb(255, 255, 255));&quot;&gt;Display on, cursor on, blink off&lt;/span&gt;&lt;/p&gt;" style="rounded=1;whiteSpace=wrap;html=1;absoluteArcSize=1;arcSize=14;strokeWidth=2;" vertex="1" parent="1">
          <mxGeometry x="323" y="160" width="205" height="100" as="geometry" />
        </mxCell>
        <mxCell id="8jLizTCmpMOPEbCXD5Jq-12" style="edgeStyle=orthogonalEdgeStyle;rounded=0;orthogonalLoop=1;jettySize=auto;html=1;entryX=0.5;entryY=0;entryDx=0;entryDy=0;" edge="1" parent="1" source="8jLizTCmpMOPEbCXD5Jq-7" target="8jLizTCmpMOPEbCXD5Jq-11">
          <mxGeometry relative="1" as="geometry" />
        </mxCell>
        <mxCell id="8jLizTCmpMOPEbCXD5Jq-7" value="Move Cursor to the beginning:&lt;br&gt;&lt;br&gt;Call&amp;nbsp;&lt;span style=&quot;background-color: transparent; color: light-dark(rgb(0, 0, 0), rgb(255, 255, 255));&quot;&gt;instCtrl(0x80)&lt;/span&gt;" style="rounded=1;whiteSpace=wrap;html=1;absoluteArcSize=1;arcSize=14;strokeWidth=2;" vertex="1" parent="1">
          <mxGeometry x="323" y="330" width="205" height="100" as="geometry" />
        </mxCell>
        <mxCell id="8jLizTCmpMOPEbCXD5Jq-11" value="Enter Infinite Loop:" style="rounded=1;whiteSpace=wrap;html=1;absoluteArcSize=1;arcSize=14;strokeWidth=2;" vertex="1" parent="1">
          <mxGeometry x="323" y="500" width="205" height="100" as="geometry" />
        </mxCell>
        <mxCell id="8jLizTCmpMOPEbCXD5Jq-13" value="" style="verticalLabelPosition=bottom;verticalAlign=top;html=1;shape=mxgraph.flowchart.or;" vertex="1" parent="1">
          <mxGeometry x="390" y="650" width="70" height="70" as="geometry" />
        </mxCell>
        <mxCell id="8jLizTCmpMOPEbCXD5Jq-20" style="edgeStyle=orthogonalEdgeStyle;rounded=0;orthogonalLoop=1;jettySize=auto;html=1;entryX=0.5;entryY=0;entryDx=0;entryDy=0;" edge="1" parent="1" source="8jLizTCmpMOPEbCXD5Jq-14" target="8jLizTCmpMOPEbCXD5Jq-19">
          <mxGeometry relative="1" as="geometry" />
        </mxCell>
        <mxCell id="8jLizTCmpMOPEbCXD5Jq-21" value="YES" style="edgeLabel;html=1;align=center;verticalAlign=middle;resizable=0;points=[];" vertex="1" connectable="0" parent="8jLizTCmpMOPEbCXD5Jq-20">
          <mxGeometry x="-0.2" y="1" relative="1" as="geometry">
            <mxPoint as="offset" />
          </mxGeometry>
        </mxCell>
        <mxCell id="8jLizTCmpMOPEbCXD5Jq-14" value="is RD == 1?" style="strokeWidth=2;html=1;shape=mxgraph.flowchart.decision;whiteSpace=wrap;" vertex="1" parent="1">
          <mxGeometry x="358" y="790" width="135" height="140" as="geometry" />
        </mxCell>
        <mxCell id="8jLizTCmpMOPEbCXD5Jq-15" style="edgeStyle=orthogonalEdgeStyle;rounded=0;orthogonalLoop=1;jettySize=auto;html=1;entryX=0;entryY=0.5;entryDx=0;entryDy=0;entryPerimeter=0;" edge="1" parent="1" source="8jLizTCmpMOPEbCXD5Jq-14" target="8jLizTCmpMOPEbCXD5Jq-13">
          <mxGeometry relative="1" as="geometry">
            <Array as="points">
              <mxPoint x="260" y="860" />
              <mxPoint x="260" y="685" />
            </Array>
          </mxGeometry>
        </mxCell>
        <mxCell id="8jLizTCmpMOPEbCXD5Jq-16" value="NO" style="edgeLabel;html=1;align=center;verticalAlign=middle;resizable=0;points=[];" vertex="1" connectable="0" parent="8jLizTCmpMOPEbCXD5Jq-15">
          <mxGeometry x="-0.072" relative="1" as="geometry">
            <mxPoint as="offset" />
          </mxGeometry>
        </mxCell>
        <mxCell id="8jLizTCmpMOPEbCXD5Jq-17" style="edgeStyle=orthogonalEdgeStyle;rounded=0;orthogonalLoop=1;jettySize=auto;html=1;entryX=0.5;entryY=0;entryDx=0;entryDy=0;entryPerimeter=0;" edge="1" parent="1" source="8jLizTCmpMOPEbCXD5Jq-11" target="8jLizTCmpMOPEbCXD5Jq-13">
          <mxGeometry relative="1" as="geometry" />
        </mxCell>
        <mxCell id="8jLizTCmpMOPEbCXD5Jq-18" style="edgeStyle=orthogonalEdgeStyle;rounded=0;orthogonalLoop=1;jettySize=auto;html=1;entryX=0.5;entryY=0;entryDx=0;entryDy=0;entryPerimeter=0;" edge="1" parent="1" source="8jLizTCmpMOPEbCXD5Jq-13" target="8jLizTCmpMOPEbCXD5Jq-14">
          <mxGeometry relative="1" as="geometry" />
        </mxCell>
        <mxCell id="8jLizTCmpMOPEbCXD5Jq-23" style="edgeStyle=orthogonalEdgeStyle;rounded=0;orthogonalLoop=1;jettySize=auto;html=1;entryX=0.5;entryY=0;entryDx=0;entryDy=0;" edge="1" parent="1" source="8jLizTCmpMOPEbCXD5Jq-19" target="8jLizTCmpMOPEbCXD5Jq-22">
          <mxGeometry relative="1" as="geometry" />
        </mxCell>
        <mxCell id="8jLizTCmpMOPEbCXD5Jq-19" value="&lt;p data-pm-slice=&quot;1 1 [&amp;quot;list&amp;quot;,{&amp;quot;spread&amp;quot;:false,&amp;quot;start&amp;quot;:610,&amp;quot;end&amp;quot;:1277},&amp;quot;regular_list_item&amp;quot;,{&amp;quot;start&amp;quot;:610,&amp;quot;end&amp;quot;:1277},&amp;quot;list&amp;quot;,{&amp;quot;spread&amp;quot;:false,&amp;quot;start&amp;quot;:661,&amp;quot;end&amp;quot;:1277},&amp;quot;regular_list_item&amp;quot;,{&amp;quot;start&amp;quot;:661,&amp;quot;end&amp;quot;:1277},&amp;quot;list&amp;quot;,{&amp;quot;spread&amp;quot;:false,&amp;quot;start&amp;quot;:675,&amp;quot;end&amp;quot;:1277},&amp;quot;regular_list_item&amp;quot;,{&amp;quot;start&amp;quot;:675,&amp;quot;end&amp;quot;:731}]&quot;&gt;Read &lt;code&gt;DATA = PORTD &amp;amp; 0x0F&lt;/code&gt;&lt;/p&gt;" style="rounded=1;whiteSpace=wrap;html=1;absoluteArcSize=1;arcSize=14;strokeWidth=2;" vertex="1" parent="1">
          <mxGeometry x="323" y="1000" width="205" height="100" as="geometry" />
        </mxCell>
        <mxCell id="8jLizTCmpMOPEbCXD5Jq-25" style="edgeStyle=orthogonalEdgeStyle;rounded=0;orthogonalLoop=1;jettySize=auto;html=1;entryX=0.5;entryY=0;entryDx=0;entryDy=0;" edge="1" parent="1" source="8jLizTCmpMOPEbCXD5Jq-22" target="8jLizTCmpMOPEbCXD5Jq-24">
          <mxGeometry relative="1" as="geometry" />
        </mxCell>
        <mxCell id="8jLizTCmpMOPEbCXD5Jq-22" value="&lt;p data-pm-slice=&quot;1 1 [&amp;quot;list&amp;quot;,{&amp;quot;spread&amp;quot;:false,&amp;quot;start&amp;quot;:610,&amp;quot;end&amp;quot;:1277},&amp;quot;regular_list_item&amp;quot;,{&amp;quot;start&amp;quot;:610,&amp;quot;end&amp;quot;:1277},&amp;quot;list&amp;quot;,{&amp;quot;spread&amp;quot;:false,&amp;quot;start&amp;quot;:661,&amp;quot;end&amp;quot;:1277},&amp;quot;regular_list_item&amp;quot;,{&amp;quot;start&amp;quot;:661,&amp;quot;end&amp;quot;:1277},&amp;quot;list&amp;quot;,{&amp;quot;spread&amp;quot;:false,&amp;quot;start&amp;quot;:675,&amp;quot;end&amp;quot;:1277},&amp;quot;regular_list_item&amp;quot;,{&amp;quot;start&amp;quot;:736,&amp;quot;end&amp;quot;:794}]&quot;&gt;Wait until &lt;code&gt;RD4&lt;/code&gt; is released&lt;/p&gt;" style="rounded=1;whiteSpace=wrap;html=1;absoluteArcSize=1;arcSize=14;strokeWidth=2;" vertex="1" parent="1">
          <mxGeometry x="323" y="1170" width="205" height="100" as="geometry" />
        </mxCell>
        <mxCell id="8jLizTCmpMOPEbCXD5Jq-27" style="edgeStyle=orthogonalEdgeStyle;rounded=0;orthogonalLoop=1;jettySize=auto;html=1;entryX=0.5;entryY=0;entryDx=0;entryDy=0;" edge="1" parent="1" source="8jLizTCmpMOPEbCXD5Jq-24" target="8jLizTCmpMOPEbCXD5Jq-26">
          <mxGeometry relative="1" as="geometry" />
        </mxCell>
        <mxCell id="8jLizTCmpMOPEbCXD5Jq-24" value="&lt;p data-pm-slice=&quot;1 1 [&amp;quot;list&amp;quot;,{&amp;quot;spread&amp;quot;:false,&amp;quot;start&amp;quot;:610,&amp;quot;end&amp;quot;:1277},&amp;quot;regular_list_item&amp;quot;,{&amp;quot;start&amp;quot;:610,&amp;quot;end&amp;quot;:1277},&amp;quot;list&amp;quot;,{&amp;quot;spread&amp;quot;:false,&amp;quot;start&amp;quot;:661,&amp;quot;end&amp;quot;:1277},&amp;quot;regular_list_item&amp;quot;,{&amp;quot;start&amp;quot;:661,&amp;quot;end&amp;quot;:1277},&amp;quot;list&amp;quot;,{&amp;quot;spread&amp;quot;:false,&amp;quot;start&amp;quot;:675,&amp;quot;end&amp;quot;:1277},&amp;quot;regular_list_item&amp;quot;,{&amp;quot;start&amp;quot;:799,&amp;quot;end&amp;quot;:879}]&quot;&gt;Map &lt;code&gt;DATA&lt;/code&gt; to corresponding character (&lt;code&gt;1&lt;/code&gt; to &lt;code&gt;#&lt;/code&gt;)&lt;/p&gt;" style="rounded=1;whiteSpace=wrap;html=1;absoluteArcSize=1;arcSize=14;strokeWidth=2;" vertex="1" parent="1">
          <mxGeometry x="323" y="1340" width="205" height="100" as="geometry" />
        </mxCell>
        <mxCell id="8jLizTCmpMOPEbCXD5Jq-29" style="edgeStyle=orthogonalEdgeStyle;rounded=0;orthogonalLoop=1;jettySize=auto;html=1;" edge="1" parent="1" source="8jLizTCmpMOPEbCXD5Jq-26" target="8jLizTCmpMOPEbCXD5Jq-28">
          <mxGeometry relative="1" as="geometry" />
        </mxCell>
        <mxCell id="8jLizTCmpMOPEbCXD5Jq-26" value="&lt;p data-pm-slice=&quot;1 1 [&amp;quot;list&amp;quot;,{&amp;quot;spread&amp;quot;:false,&amp;quot;start&amp;quot;:610,&amp;quot;end&amp;quot;:1277},&amp;quot;regular_list_item&amp;quot;,{&amp;quot;start&amp;quot;:610,&amp;quot;end&amp;quot;:1277},&amp;quot;list&amp;quot;,{&amp;quot;spread&amp;quot;:false,&amp;quot;start&amp;quot;:661,&amp;quot;end&amp;quot;:1277},&amp;quot;regular_list_item&amp;quot;,{&amp;quot;start&amp;quot;:661,&amp;quot;end&amp;quot;:1277},&amp;quot;list&amp;quot;,{&amp;quot;spread&amp;quot;:false,&amp;quot;start&amp;quot;:675,&amp;quot;end&amp;quot;:1277},&amp;quot;regular_list_item&amp;quot;,{&amp;quot;start&amp;quot;:884,&amp;quot;end&amp;quot;:959}]&quot;&gt;Call &lt;code&gt;dataCtrl()&lt;/code&gt; to display character on LCD&lt;/p&gt;" style="rounded=1;whiteSpace=wrap;html=1;absoluteArcSize=1;arcSize=14;strokeWidth=2;" vertex="1" parent="1">
          <mxGeometry x="323" y="1510" width="205" height="100" as="geometry" />
        </mxCell>
        <mxCell id="8jLizTCmpMOPEbCXD5Jq-28" value="&lt;p data-pm-slice=&quot;1 1 [&amp;quot;list&amp;quot;,{&amp;quot;spread&amp;quot;:false,&amp;quot;start&amp;quot;:610,&amp;quot;end&amp;quot;:1277},&amp;quot;regular_list_item&amp;quot;,{&amp;quot;start&amp;quot;:610,&amp;quot;end&amp;quot;:1277},&amp;quot;list&amp;quot;,{&amp;quot;spread&amp;quot;:false,&amp;quot;start&amp;quot;:661,&amp;quot;end&amp;quot;:1277},&amp;quot;regular_list_item&amp;quot;,{&amp;quot;start&amp;quot;:661,&amp;quot;end&amp;quot;:1277},&amp;quot;list&amp;quot;,{&amp;quot;spread&amp;quot;:false,&amp;quot;start&amp;quot;:675,&amp;quot;end&amp;quot;:1277},&amp;quot;regular_list_item&amp;quot;,{&amp;quot;start&amp;quot;:964,&amp;quot;end&amp;quot;:1015}]&quot;&gt;Increment &lt;code&gt;charCount&lt;/code&gt;&lt;/p&gt;" style="rounded=1;whiteSpace=wrap;html=1;absoluteArcSize=1;arcSize=14;strokeWidth=2;" vertex="1" parent="1">
          <mxGeometry x="323" y="1680" width="205" height="100" as="geometry" />
        </mxCell>
        <mxCell id="8jLizTCmpMOPEbCXD5Jq-51" style="edgeStyle=orthogonalEdgeStyle;rounded=0;orthogonalLoop=1;jettySize=auto;html=1;entryX=0;entryY=0.5;entryDx=0;entryDy=0;" edge="1" parent="1" source="8jLizTCmpMOPEbCXD5Jq-30" target="8jLizTCmpMOPEbCXD5Jq-33">
          <mxGeometry relative="1" as="geometry">
            <Array as="points">
              <mxPoint x="178" y="1900" />
            </Array>
          </mxGeometry>
        </mxCell>
        <mxCell id="8jLizTCmpMOPEbCXD5Jq-52" value="YES" style="edgeLabel;html=1;align=center;verticalAlign=middle;resizable=0;points=[];" vertex="1" connectable="0" parent="8jLizTCmpMOPEbCXD5Jq-51">
          <mxGeometry x="-0.2825" y="-2" relative="1" as="geometry">
            <mxPoint as="offset" />
          </mxGeometry>
        </mxCell>
        <mxCell id="8jLizTCmpMOPEbCXD5Jq-30" value="&lt;p data-pm-slice=&quot;1 1 [&amp;quot;list&amp;quot;,{&amp;quot;spread&amp;quot;:false,&amp;quot;start&amp;quot;:610,&amp;quot;end&amp;quot;:1277},&amp;quot;regular_list_item&amp;quot;,{&amp;quot;start&amp;quot;:610,&amp;quot;end&amp;quot;:1277},&amp;quot;list&amp;quot;,{&amp;quot;spread&amp;quot;:false,&amp;quot;start&amp;quot;:661,&amp;quot;end&amp;quot;:1277},&amp;quot;regular_list_item&amp;quot;,{&amp;quot;start&amp;quot;:661,&amp;quot;end&amp;quot;:1277},&amp;quot;list&amp;quot;,{&amp;quot;spread&amp;quot;:false,&amp;quot;start&amp;quot;:675,&amp;quot;end&amp;quot;:1277},&amp;quot;regular_list_item&amp;quot;,{&amp;quot;start&amp;quot;:1020,&amp;quot;end&amp;quot;:1277}]&quot;&gt;If &lt;code&gt;charCount &amp;gt;= 104&lt;/code&gt;&lt;/p&gt;" style="strokeWidth=2;html=1;shape=mxgraph.flowchart.decision;whiteSpace=wrap;" vertex="1" parent="1">
          <mxGeometry x="110" y="1660" width="135" height="140" as="geometry" />
        </mxCell>
        <mxCell id="8jLizTCmpMOPEbCXD5Jq-31" style="edgeStyle=orthogonalEdgeStyle;rounded=0;orthogonalLoop=1;jettySize=auto;html=1;entryX=1;entryY=0.5;entryDx=0;entryDy=0;entryPerimeter=0;" edge="1" parent="1" source="8jLizTCmpMOPEbCXD5Jq-28" target="8jLizTCmpMOPEbCXD5Jq-30">
          <mxGeometry relative="1" as="geometry" />
        </mxCell>
        <mxCell id="8jLizTCmpMOPEbCXD5Jq-33" value="&lt;p data-pm-slice=&quot;1 1 [&amp;quot;list&amp;quot;,{&amp;quot;spread&amp;quot;:false,&amp;quot;start&amp;quot;:610,&amp;quot;end&amp;quot;:1277},&amp;quot;regular_list_item&amp;quot;,{&amp;quot;start&amp;quot;:610,&amp;quot;end&amp;quot;:1277},&amp;quot;list&amp;quot;,{&amp;quot;spread&amp;quot;:false,&amp;quot;start&amp;quot;:661,&amp;quot;end&amp;quot;:1277},&amp;quot;regular_list_item&amp;quot;,{&amp;quot;start&amp;quot;:661,&amp;quot;end&amp;quot;:1277},&amp;quot;list&amp;quot;,{&amp;quot;spread&amp;quot;:false,&amp;quot;start&amp;quot;:675,&amp;quot;end&amp;quot;:1277},&amp;quot;regular_list_item&amp;quot;,{&amp;quot;start&amp;quot;:1020,&amp;quot;end&amp;quot;:1277},&amp;quot;list&amp;quot;,{&amp;quot;spread&amp;quot;:false,&amp;quot;start&amp;quot;:1078,&amp;quot;end&amp;quot;:1277},&amp;quot;regular_list_item&amp;quot;,{&amp;quot;start&amp;quot;:1078,&amp;quot;end&amp;quot;:1145}]&quot;&gt;Call &lt;code&gt;instCtrl(0x01)&lt;br&gt;&lt;/code&gt;&lt;/p&gt;&lt;p data-pm-slice=&quot;1 1 [&amp;quot;list&amp;quot;,{&amp;quot;spread&amp;quot;:false,&amp;quot;start&amp;quot;:610,&amp;quot;end&amp;quot;:1277},&amp;quot;regular_list_item&amp;quot;,{&amp;quot;start&amp;quot;:610,&amp;quot;end&amp;quot;:1277},&amp;quot;list&amp;quot;,{&amp;quot;spread&amp;quot;:false,&amp;quot;start&amp;quot;:661,&amp;quot;end&amp;quot;:1277},&amp;quot;regular_list_item&amp;quot;,{&amp;quot;start&amp;quot;:661,&amp;quot;end&amp;quot;:1277},&amp;quot;list&amp;quot;,{&amp;quot;spread&amp;quot;:false,&amp;quot;start&amp;quot;:675,&amp;quot;end&amp;quot;:1277},&amp;quot;regular_list_item&amp;quot;,{&amp;quot;start&amp;quot;:1020,&amp;quot;end&amp;quot;:1277},&amp;quot;list&amp;quot;,{&amp;quot;spread&amp;quot;:false,&amp;quot;start&amp;quot;:1078,&amp;quot;end&amp;quot;:1277},&amp;quot;regular_list_item&amp;quot;,{&amp;quot;start&amp;quot;:1152,&amp;quot;end&amp;quot;:1218}]&quot;&gt;Call &lt;code&gt;instCtrl(0x80)&lt;br&gt;&lt;/code&gt;&lt;/p&gt;&lt;p data-pm-slice=&quot;1 1 [&amp;quot;list&amp;quot;,{&amp;quot;spread&amp;quot;:false,&amp;quot;start&amp;quot;:610,&amp;quot;end&amp;quot;:1277},&amp;quot;regular_list_item&amp;quot;,{&amp;quot;start&amp;quot;:610,&amp;quot;end&amp;quot;:1277},&amp;quot;list&amp;quot;,{&amp;quot;spread&amp;quot;:false,&amp;quot;start&amp;quot;:661,&amp;quot;end&amp;quot;:1277},&amp;quot;regular_list_item&amp;quot;,{&amp;quot;start&amp;quot;:661,&amp;quot;end&amp;quot;:1277},&amp;quot;list&amp;quot;,{&amp;quot;spread&amp;quot;:false,&amp;quot;start&amp;quot;:675,&amp;quot;end&amp;quot;:1277},&amp;quot;regular_list_item&amp;quot;,{&amp;quot;start&amp;quot;:1020,&amp;quot;end&amp;quot;:1277},&amp;quot;list&amp;quot;,{&amp;quot;spread&amp;quot;:false,&amp;quot;start&amp;quot;:1078,&amp;quot;end&amp;quot;:1277},&amp;quot;regular_list_item&amp;quot;,{&amp;quot;start&amp;quot;:1225,&amp;quot;end&amp;quot;:1277}]&quot;&gt;Reset &lt;code&gt;charCount&lt;/code&gt; to 0&lt;/p&gt;" style="rounded=1;whiteSpace=wrap;html=1;absoluteArcSize=1;arcSize=14;strokeWidth=2;" vertex="1" parent="1">
          <mxGeometry x="320" y="1850" width="205" height="100" as="geometry" />
        </mxCell>
        <mxCell id="8jLizTCmpMOPEbCXD5Jq-36" value="END" style="strokeWidth=2;html=1;shape=mxgraph.flowchart.terminator;whiteSpace=wrap;" vertex="1" parent="1">
          <mxGeometry x="372.5" y="2050" width="100" height="60" as="geometry" />
        </mxCell>
        <mxCell id="8jLizTCmpMOPEbCXD5Jq-41" value="" style="verticalLabelPosition=bottom;verticalAlign=top;html=1;shape=mxgraph.flowchart.or;" vertex="1" parent="1">
          <mxGeometry x="640" y="650" width="70" height="70" as="geometry" />
        </mxCell>
        <mxCell id="8jLizTCmpMOPEbCXD5Jq-42" style="edgeStyle=orthogonalEdgeStyle;rounded=0;orthogonalLoop=1;jettySize=auto;html=1;entryX=1;entryY=0.5;entryDx=0;entryDy=0;entryPerimeter=0;" edge="1" parent="1" source="8jLizTCmpMOPEbCXD5Jq-41" target="8jLizTCmpMOPEbCXD5Jq-13">
          <mxGeometry relative="1" as="geometry" />
        </mxCell>
        <mxCell id="8jLizTCmpMOPEbCXD5Jq-43" style="edgeStyle=orthogonalEdgeStyle;rounded=0;orthogonalLoop=1;jettySize=auto;html=1;entryX=0.5;entryY=1;entryDx=0;entryDy=0;entryPerimeter=0;" edge="1" parent="1" source="8jLizTCmpMOPEbCXD5Jq-33" target="8jLizTCmpMOPEbCXD5Jq-41">
          <mxGeometry relative="1" as="geometry" />
        </mxCell>
        <mxCell id="8jLizTCmpMOPEbCXD5Jq-46" value="&lt;font style=&quot;font-size: 19px;&quot;&gt;&lt;b&gt;A&lt;/b&gt;&lt;/font&gt;" style="strokeWidth=2;html=1;shape=mxgraph.flowchart.start_2;whiteSpace=wrap;" vertex="1" parent="1">
          <mxGeometry x="152.5" y="1540" width="50" height="50" as="geometry" />
        </mxCell>
        <mxCell id="8jLizTCmpMOPEbCXD5Jq-47" style="edgeStyle=orthogonalEdgeStyle;rounded=0;orthogonalLoop=1;jettySize=auto;html=1;entryX=0.5;entryY=1;entryDx=0;entryDy=0;entryPerimeter=0;" edge="1" parent="1" source="8jLizTCmpMOPEbCXD5Jq-30" target="8jLizTCmpMOPEbCXD5Jq-46">
          <mxGeometry relative="1" as="geometry" />
        </mxCell>
        <mxCell id="8jLizTCmpMOPEbCXD5Jq-53" value="NO" style="edgeLabel;html=1;align=center;verticalAlign=middle;resizable=0;points=[];" vertex="1" connectable="0" parent="8jLizTCmpMOPEbCXD5Jq-47">
          <mxGeometry x="-0.0286" y="2" relative="1" as="geometry">
            <mxPoint x="1" as="offset" />
          </mxGeometry>
        </mxCell>
        <mxCell id="8jLizTCmpMOPEbCXD5Jq-48" value="&lt;font style=&quot;font-size: 19px;&quot;&gt;&lt;b&gt;A&lt;/b&gt;&lt;/font&gt;" style="strokeWidth=2;html=1;shape=mxgraph.flowchart.start_2;whiteSpace=wrap;" vertex="1" parent="1">
          <mxGeometry x="790" y="660" width="50" height="50" as="geometry" />
        </mxCell>
        <mxCell id="8jLizTCmpMOPEbCXD5Jq-49" style="edgeStyle=orthogonalEdgeStyle;rounded=0;orthogonalLoop=1;jettySize=auto;html=1;entryX=1;entryY=0.5;entryDx=0;entryDy=0;entryPerimeter=0;" edge="1" parent="1" source="8jLizTCmpMOPEbCXD5Jq-48" target="8jLizTCmpMOPEbCXD5Jq-41">
          <mxGeometry relative="1" as="geometry" />
        </mxCell>
        <mxCell id="8jLizTCmpMOPEbCXD5Jq-50" style="edgeStyle=orthogonalEdgeStyle;rounded=0;orthogonalLoop=1;jettySize=auto;html=1;entryX=0.5;entryY=0;entryDx=0;entryDy=0;entryPerimeter=0;" edge="1" parent="1" source="8jLizTCmpMOPEbCXD5Jq-33" target="8jLizTCmpMOPEbCXD5Jq-36">
          <mxGeometry relative="1" as="geometry" />
        </mxCell>
      </root>
    </mxGraphModel>
  </diagram>
</mxfile>
